# xmcd
#
# Track frame offsets:
#	150
#	10751
#	23749
#	33980
#	49522
#	65161
#	81145
#	94521
#	110144
#	122212
#	133613
#	145063
#	157307
#	172085
#	187685
#	198723
#
# Disc length: 2743 seconds
#
# Revision: 1
# Processed by: cddbd v1.5.2PL0 Copyright (c) Steve Scherf et al.
# Submitted via: audiograbber 1.83.01
#
DISCID=dd0ab510
DTITLE=Billy Walker - 16 Gospel Super Hits
DYEAR=2010
DGENRE=Gospel
TTITLE0=Only One Prayer Away
TTITLE1=Hello God
TTITLE2=Do Lord
TTITLE3=Just A Closer Walk With Thee
TTITLE4=Peace In The Valley
TTITLE5=Precious Memories
TTITLE6=What A Friend We Have In Jesus
TTITLE7=The Old Rugged Cross
TTITLE8=An Evening Prayer
TTITLE9=Rock Of Ages
TTITLE10=In The Garden
TTITLE11=Uncloudy Day
TTITLE12=Amazing Grace
TTITLE13=How Great Thou Art
TTITLE14=Whispering Hope
TTITLE15=Old Time Religion
EXTD=
EXTT0=
EXTT1=
EXTT2=
EXTT3=
EXTT4=
EXTT5=
EXTT6=
EXTT7=
EXTT8=
EXTT9=
EXTT10=
EXTT11=
EXTT12=
EXTT13=
EXTT14=
EXTT15=
PLAYORDER=
